<?xml version="1.0" encoding="UTF-8" standalone="no"?>
<!-- Created with Inkscape (http://www.inkscape.org/) -->

<svg
   width="629.44006"
   height="341.41855"
   id="svg2"
   version="1.1"
   inkscape:version="1.2.2 (732a01da63, 2022-12-09)"
   sodipodi:docname="Racking Logo.svg"
   inkscape:export-filename="C:\Users\ToolRoom\Desktop\Catalogue\bitmap logo.png"
   inkscape:export-xdpi="1200"
   inkscape:export-ydpi="1200"
   style="enable-background:new"
   viewBox="0 0 590.10004 320.0799"
   xmlns:inkscape="http://www.inkscape.org/namespaces/inkscape"
   xmlns:sodipodi="http://sodipodi.sourceforge.net/DTD/sodipodi-0.dtd"
   xmlns="http://www.w3.org/2000/svg"
   xmlns:svg="http://www.w3.org/2000/svg"
   xmlns:rdf="http://www.w3.org/1999/02/22-rdf-syntax-ns#"
   xmlns:cc="http://creativecommons.org/ns#"
   xmlns:dc="http://purl.org/dc/elements/1.1/">
  <defs
     id="defs4">
    <inkscape:perspective
       sodipodi:type="inkscape:persp3d"
       inkscape:vp_x="0 : 74.838656 : 1"
       inkscape:vp_y="0 : 1000 : 0"
       inkscape:vp_z="189.99999 : 74.838656 : 1"
       inkscape:persp3d-origin="94.999997 : 57.005323 : 1"
       id="perspective4385" />
    <filter
       inkscape:collect="always"
       id="filter4314"
       x="-0.10813381"
       width="1.2162676"
       y="-0.11016132"
       height="1.2203226"
       color-interpolation-filters="sRGB">
      <feGaussianBlur
         inkscape:collect="always"
         stdDeviation="1.1475138"
         id="feGaussianBlur4316" />
    </filter>
    <filter
       inkscape:collect="always"
       id="filter4318"
       x="-0.067161564"
       width="1.1343231"
       y="-0.1449491"
       height="1.2898982"
       color-interpolation-filters="sRGB">
      <feGaussianBlur
         inkscape:collect="always"
         stdDeviation="1.1475138"
         id="feGaussianBlur4320" />
    </filter>
    <filter
       inkscape:collect="always"
       id="filter4322"
       x="-0.10014637"
       width="1.2002927"
       y="-0.11473835"
       height="1.2294767"
       color-interpolation-filters="sRGB">
      <feGaussianBlur
         inkscape:collect="always"
         stdDeviation="1.1475138"
         id="feGaussianBlur4324" />
    </filter>
    <filter
       inkscape:collect="always"
       id="filter4326"
       x="-0.13770165"
       width="1.2754033"
       y="-0.11475137"
       height="1.2295027"
       color-interpolation-filters="sRGB">
      <feGaussianBlur
         inkscape:collect="always"
         stdDeviation="1.1475138"
         id="feGaussianBlur4328" />
    </filter>
    <filter
       inkscape:collect="always"
       id="filter4330"
       color-interpolation-filters="sRGB"
       x="-0.016344141"
       y="-0.045148083"
       width="1.0326883"
       height="1.0902962">
      <feGaussianBlur
         inkscape:collect="always"
         stdDeviation="1.1475138"
         id="feGaussianBlur4332" />
    </filter>
  </defs>
  <sodipodi:namedview
     id="base"
     pagecolor="#ffffff"
     bordercolor="#666666"
     borderopacity="1.0"
     inkscape:pageopacity="0"
     inkscape:pageshadow="2"
     inkscape:zoom="0.99999999"
     inkscape:cx="146.5"
     inkscape:cy="85.000001"
     inkscape:document-units="px"
     inkscape:current-layer="layer2"
     showgrid="false"
     fit-margin-top="5"
     fit-margin-left="5"
     fit-margin-right="5"
     fit-margin-bottom="5"
     inkscape:snap-global="true"
     showguides="true"
     inkscape:window-width="1920"
     inkscape:window-height="1017"
     inkscape:window-x="-8"
     inkscape:window-y="-8"
     inkscape:window-maximized="1"
     inkscape:guide-bbox="true"
     units="px"
     inkscape:showpageshadow="0"
     inkscape:pagecheckerboard="1"
     inkscape:deskcolor="#d1d1d1">
    <inkscape:grid
       type="xygrid"
       id="grid4070"
       empspacing="5"
       visible="true"
       enabled="true"
       snapvisiblegridlinesonly="true"
       spacingx="0.24999999"
       spacingy="0.25000001"
       originx="197.41205"
       originy="108.23568" />
  </sodipodi:namedview>
  <metadata
     id="metadata7">
    <rdf:RDF>
      <cc:Work
         rdf:about="">
        <dc:format>image/svg+xml</dc:format>
        <dc:type
           rdf:resource="http://purl.org/dc/dcmitype/StillImage" />
      </cc:Work>
    </rdf:RDF>
  </metadata>
  <g
     inkscape:groupmode="layer"
     id="layer3"
     inkscape:label="Shadow"
     style="display:inline"
     transform="translate(197.41206,104.84421)">
    <path
       sodipodi:nodetypes="ccccccc"
       inkscape:connector-curvature="0"
       id="path3043-1"
       d="m 77.027732,65.513866 v -11 c 4.16597,7.410912 11.755145,12 20.25,12 8.494948,0 16.584518,-4.589088 20.750088,-12 l 0.006,10.99544 c -5.61972,5.18028 -13.17835,8.00456 -20.756088,8.00456 -7.577653,0 -14.630283,-2.81972 -20.25,-8 z"
       style="display:inline;fill:#000000;fill-opacity:0.62963;stroke:none;filter:url(#filter4318)"
       transform="matrix(3.32,0,0,3.32,-226.52028,-128.05953)" />
    <path
       sodipodi:nodetypes="cssscccssscccssscccsssccc"
       inkscape:connector-curvature="0"
       id="path3045-7"
       d="m 120.52992,43.013866 c -0.0504,16.798946 13.56406,30.44942 30.40898,30.49986 16.8446,0.0504 30.54092,-13.65525 30.59132,-30.49986 0.0504,-16.844609 -13.56406,-30.449423 -30.40867,-30.499863 -7.60915,-0.02278 -14.952,2.799502 -20.58921,7.95633 l -0.002,11.043538 c 0,-1.085071 0,-1.128941 0.001,-0.018 4.17851,-7.424127 11.98356,-12.007525 20.49858,-11.982005 12.9853,0.03891 23.5389,10.506294 23.5,23.5 -0.0389,12.993705 -10.5147,23.53891 -23.5,23.5 -12.9853,-0.0389 -23.4556,-10.500977 -23.5,-23.5 0,-16.249999 -13.40532,-30.499995 -30.251138,-30.5 -16.845732,5e-6 -30.25105,14.25 -30.25105,30.5 -0.04443,12.999023 -10.514695,23.46109 -23.5,23.5 -12.985305,0.03891 -23.461119,-10.506295 -23.5,-23.5 -0.03888,-12.993706 10.514695,-23.461093 23.5,-23.5 8.515025,-0.02552 16.320074,4.557878 20.498576,11.982004 0.0015,-1.11094 0.0014,-1.06707 0.0014,0.018 l -0.0021,-11.043536 c -5.637205,-5.156829 -12.980061,-7.979115 -20.589202,-7.956331 -16.84461,0.05044 -30.459112,13.655254 -30.408674,30.499863 0.05044,16.84461 13.746717,30.5503 30.591326,30.49986 16.84461,-0.05044 30.459043,-13.700914 30.408674,-30.49986 7e-5,-12.933028 10.271311,-23.5 23.25105,-23.5 12.979828,0 23.251068,10.566972 23.251138,23.5 z"
       style="display:inline;fill:#000000;fill-opacity:0.62963;stroke:none;filter:url(#filter4330);stroke-width:0.99990587;stroke-dasharray:none"
       transform="matrix(3.32,0,0,3.32,-226.52028,-128.05953)" />
    <path
       sodipodi:nodetypes="ccccccccccccc"
       inkscape:connector-curvature="0"
       id="path3047-4"
       d="m 33.027732,30.513866 c 9.5,0 20,0 20,0 v 4.5 h -13 v 4.5 h 11 v 5 h -11 v 5 h 13 v 5 h -20 z"
       style="display:inline;fill:#000000;fill-opacity:0.62963;stroke:none;filter:url(#filter4326)"
       transform="matrix(3.32,0,0,3.32,-226.52028,-128.05953)" />
    <path
       sodipodi:nodetypes="cccccccccccccc"
       inkscape:connector-curvature="0"
       id="path3049-0"
       d="m 92.527732,30.513866 h -9.25 l 0.25,24 h 5.5 v -17.5 l 5.5,17.5 c 1.66666,-8.28e-4 3.33334,8.28e-4 5.000044,0 l 5.500034,-17.502485 v 17.5 h 5.5 l 0.25,-24 h -9.25 l -4.500078,14.001242 z"
       style="display:inline;fill:#000000;fill-opacity:0.62963;stroke:none;filter:url(#filter4322)"
       transform="matrix(3.32,0,0,3.32,-226.52028,-128.05953)" />
    <path
       id="path3051-9"
       d="m 151.02782,30.013866 c -7.03361,0 -12.71875,5.596441 -12.71875,12.5 0,6.903559 5.68514,12.5 12.71875,12.5 7.03361,0 12.75,-5.596441 12.75,-12.5 0,-6.903559 -5.71639,-12.5 -12.75,-12.5 z m -0.125,6.03125 c 3.10229,0 5.61824,2.9973 5.625,6.71875 0.007,3.72145 -2.49146,6.75 -5.59375,6.75 -3.10229,0 -5.64949,-3.02855 -5.65625,-6.75 -0.007,-3.72145 2.52271,-6.71875 5.625,-6.71875 z"
       style="display:inline;fill:#000000;fill-opacity:0.62963;stroke:none;filter:url(#filter4314)"
       inkscape:connector-curvature="0"
       transform="matrix(3.32,0,0,3.32,-226.52028,-128.05953)" />
  </g>
  <g
     inkscape:groupmode="layer"
     id="layer2"
     inkscape:label="vectors"
     style="display:inline"
     transform="translate(197.41206,104.84421)">
    <path
       style="display:inline;fill:#ff6600;fill-opacity:1;stroke:#ff6600;stroke-width:3.32;stroke-linecap:butt;stroke-linejoin:miter;stroke-miterlimit:4;stroke-opacity:1"
       d="m 39.079726,77.780475 v -36.52 c 13.831021,24.604227 39.027082,39.84 67.229994,39.84 28.20294,0 55.06031,-15.235773 68.89,-39.84 l 0.0199,36.504867 c -18.65747,17.198516 -43.75212,26.575128 -68.90992,26.575128 -25.157802,0 -48.572533,-9.361479 -67.229994,-26.559995 z"
       id="path4108-1"
       inkscape:connector-curvature="0"
       sodipodi:nodetypes="ccccccc" />
    <path
       style="display:inline;fill:#ff6600;fill-opacity:1;stroke:#ff6600;stroke-width:3.32;stroke-linecap:butt;stroke-linejoin:miter;stroke-miterlimit:4;stroke-opacity:1"
       d="M 183.5067,3.0804745 C 183.33937,58.852975 228.53938,104.17256 284.46451,104.34002 340.38858,104.50748 385.86036,59.00458 386.02769,3.0804745 386.19515,-52.843628 340.99501,-98.01161 285.07091,-98.179071 c -25.26238,-0.07565 -49.64064,9.294347 -68.35618,26.415016 l -0.007,36.664546 c 0,-3.602436 0,-3.748084 0.003,-0.05976 13.87265,-24.648102 39.78542,-39.864983 68.05529,-39.780256 43.11119,0.129181 78.14914,34.880895 78.02,78.0199995 C 362.65755,46.219575 327.87789,81.229656 284.7667,81.100475 241.6555,80.971293 206.8941,46.237231 206.7467,3.0804745 206.7467,-50.869523 162.24103,-98.179509 106.31321,-98.179525 50.38538,-98.179511 5.8797246,-50.869526 5.8797246,3.0804745 5.7322004,46.237231 -29.029063,80.971303 -72.140275,81.100475 c -43.111215,0.129164 -77.890915,-34.8809 -78.020005,-78.0200005 -0.12908,-43.1391045 34.90879,-77.8908285 78.020005,-78.0199995 28.269883,-0.08473 54.182645,15.132154 68.055272,39.780252 0.00498,-3.68832 0.00465,-3.542672 0.00465,0.05976 l -0.00697,-36.664539 C -22.802848,-88.884724 -47.18113,-98.254715 -72.443477,-98.179072 -128.36758,-98.011618 -173.56773,-52.843628 -173.40028,3.0804745 -173.23282,59.00458 -127.76117,104.50747 -71.837072,104.34002 -15.912968,104.17256 29.28695,58.852975 29.119725,3.0804745 29.119957,-39.857179 63.220477,-74.939525 106.31321,-74.939525 c 43.09274,0 77.19325,35.082346 77.19349,78.0199995 z"
       id="path4085-8"
       inkscape:connector-curvature="0"
       sodipodi:nodetypes="cssscccssscccssscccsssccc" />
    <path
       style="fill:#ff6600;fill-opacity:1;stroke:#ff6600;stroke-width:3.32px;stroke-linecap:butt;stroke-linejoin:miter;stroke-opacity:1"
       d="m -107.00028,-38.419526 c 31.540005,0 66.400005,0 66.400005,0 v 14.94 h -43.16 v 14.9400005 h 36.52 v 16.6 h -36.52 V 24.660475 h 43.16 v 16.6 h -66.400005 z"
       id="path4249"
       inkscape:connector-curvature="0"
       sodipodi:nodetypes="ccccccccccccc" />
    <text
       xml:space="preserve"
       style="font-style:normal;font-weight:normal;line-height:0%;font-family:sans-serif;letter-spacing:18.75000002px;word-spacing:0px;fill:#000000;fill-opacity:1;stroke:none"
       x="-69.748055"
       y="202.13992"
       id="text4251"
       transform="matrix(0.96761218,0,-0.06456595,1.0334719,0,0)"><tspan
         sodipodi:role="line"
         id="tspan4253"
         x="-69.748055"
         y="202.13992"
         style="font-style:italic;font-variant:normal;font-weight:normal;font-stretch:normal;font-size:82.347px;line-height:1.25;font-family:'Times New Roman';-inkscape-font-specification:'Times New Roman';word-spacing:8.57782px">RACKING</tspan></text>
    <path
       style="fill:none;stroke:#000000;stroke-width:3.32px;stroke-linecap:round;stroke-linejoin:miter;stroke-opacity:1"
       d="m -97.040275,154.14048 -16.600005,53.12"
       id="path4387"
       inkscape:connector-curvature="0"
       sodipodi:nodetypes="cc" />
    <path
       style="display:inline;fill:none;stroke:#000000;stroke-width:3.32px;stroke-linecap:round;stroke-linejoin:miter;stroke-opacity:1"
       d="m -103.68028,154.14048 -16.6,53.12"
       id="path4387-7"
       inkscape:connector-curvature="0"
       sodipodi:nodetypes="cc" />
    <path
       style="display:inline;fill:none;stroke:#000000;stroke-width:3.32px;stroke-linecap:round;stroke-linejoin:miter;stroke-opacity:1"
       d="m -163.44028,154.14048 -16.6,53.12"
       id="path4387-6"
       inkscape:connector-curvature="0"
       sodipodi:nodetypes="cc" />
    <path
       style="display:inline;fill:none;stroke:#000000;stroke-width:3.32px;stroke-linecap:round;stroke-linejoin:miter;stroke-opacity:1"
       d="m -156.80028,154.14048 -16.6,53.12"
       id="path4387-1"
       inkscape:connector-curvature="0"
       sodipodi:nodetypes="cc" />
    <path
       style="display:inline;fill:none;stroke:#000000;stroke-width:3.32px;stroke-linecap:round;stroke-linejoin:miter;stroke-opacity:1"
       d="m -150.16028,154.14048 -16.6,53.12"
       id="path4387-8"
       inkscape:connector-curvature="0"
       sodipodi:nodetypes="cc" />
    <path
       style="display:inline;fill:none;stroke:#000000;stroke-width:3.32px;stroke-linecap:round;stroke-linejoin:miter;stroke-opacity:1"
       d="m -143.52028,154.14048 -16.6,53.12"
       id="path4387-9"
       inkscape:connector-curvature="0"
       sodipodi:nodetypes="cc" />
    <path
       style="display:inline;fill:none;stroke:#000000;stroke-width:3.32px;stroke-linecap:round;stroke-linejoin:miter;stroke-opacity:1"
       d="m -136.88028,154.14048 -16.6,53.12"
       id="path4387-2"
       inkscape:connector-curvature="0"
       sodipodi:nodetypes="cc" />
    <path
       style="display:inline;fill:none;stroke:#000000;stroke-width:3.32px;stroke-linecap:round;stroke-linejoin:miter;stroke-opacity:1"
       d="m -130.24028,154.14048 -16.6,53.12"
       id="path4387-79"
       inkscape:connector-curvature="0"
       sodipodi:nodetypes="cc" />
    <path
       style="display:inline;fill:none;stroke:#000000;stroke-width:3.32px;stroke-linecap:round;stroke-linejoin:miter;stroke-opacity:1"
       d="m -123.60028,154.14048 -16.6,53.12"
       id="path4387-5"
       inkscape:connector-curvature="0"
       sodipodi:nodetypes="cc" />
    <path
       style="display:inline;fill:none;stroke:#000000;stroke-width:3.32px;stroke-linecap:round;stroke-linejoin:miter;stroke-opacity:1"
       d="m -116.96028,154.14048 -16.6,53.12"
       id="path4387-4"
       inkscape:connector-curvature="0"
       sodipodi:nodetypes="cc" />
    <path
       style="display:inline;fill:none;stroke:#000000;stroke-width:3.32px;stroke-linecap:round;stroke-linejoin:miter;stroke-opacity:1"
       d="m -110.32028,154.14048 -16.6,53.12"
       id="path4387-3"
       inkscape:connector-curvature="0"
       sodipodi:nodetypes="cc" />
    <path
       style="display:inline;fill:none;stroke:#000000;stroke-width:3.32px;stroke-linecap:round;stroke-linejoin:miter;stroke-opacity:1"
       d="m -170.08028,154.14048 -16.6,53.12"
       id="path4387-6-1"
       inkscape:connector-curvature="0"
       sodipodi:nodetypes="cc" />
    <path
       style="fill:#ff6600;fill-opacity:1;stroke:#ff6600;stroke-width:3.32px;stroke-linecap:butt;stroke-linejoin:miter;stroke-opacity:1"
       d="m 90.539725,-38.419526 h -30.71 l 0.83,79.680001 h 18.26 v -58.1 l 18.26,58.1 c 5.533325,-0.0028 11.066685,0.0028 16.599995,0 l 18.25997,-58.108251 v 58.1 h 18.26 l 0.83,-79.68 h -30.71 L 105.47971,8.0563477 Z"
       id="path4502"
       inkscape:connector-curvature="0"
       sodipodi:nodetypes="cccccccccccccc" />
    <path
       style="fill:#ff6600;fill-opacity:1;stroke:none"
       d="m 284.75972,-40.079526 c -23.35158,0 -42.22625,18.580184 -42.22625,41.5000005 0,22.9198155 18.87467,41.5000005 42.22625,41.5000005 23.35159,0 42.33,-18.580185 42.33,-41.5000005 0,-22.9198165 -18.97841,-41.5000005 -42.33,-41.5000005 z m -0.415,20.02375 c 10.29961,0 18.65256,9.951037 18.675,22.3062505 0.0232,12.3552145 -8.27164,22.4100005 -18.57125,22.4100005 -10.2996,0 -18.7563,-10.054786 -18.77875,-22.4100005 -0.0232,-12.3552135 8.3754,-22.3062505 18.675,-22.3062505 z"
       id="path4603"
       inkscape:connector-curvature="0" />
    <path
       sodipodi:nodetypes="ccccccc"
       inkscape:connector-curvature="0"
       id="path3043"
       d="m 39.079726,77.780475 v -36.52 c 13.831021,24.604227 39.027082,39.84 67.229994,39.84 28.20294,0 55.06031,-15.235773 68.89,-39.84 l 0.0199,36.504867 c -18.65747,17.198516 -43.75212,26.575128 -68.90992,26.575128 -25.157802,0 -48.572533,-9.361479 -67.229994,-26.559995 z"
       style="display:inline;fill:#ff9900;fill-opacity:1;stroke:#ff9900;stroke-width:3.32;stroke-linecap:butt;stroke-linejoin:miter;stroke-miterlimit:4;stroke-opacity:1" />
    <path
       sodipodi:nodetypes="cssscccssscccssscccsssccc"
       inkscape:connector-curvature="0"
       id="path3045"
       d="M 183.5067,3.0804745 C 183.33937,58.852975 228.53938,104.17256 284.46451,104.34002 340.38858,104.50748 385.86036,59.00458 386.02769,3.0804745 386.19515,-52.843628 340.99501,-98.01161 285.07091,-98.179071 c -25.26238,-0.07565 -49.64064,9.294347 -68.35618,26.415016 l -0.007,36.664546 c 0,-3.602436 0,-3.748084 0.003,-0.05976 13.87265,-24.648102 39.78542,-39.864983 68.05529,-39.780256 43.11119,0.129181 78.14914,34.880895 78.02,78.0199995 C 362.65755,46.219575 327.87789,81.229656 284.7667,81.100475 241.6555,80.971293 206.8941,46.237231 206.7467,3.0804745 206.7467,-50.869523 162.24103,-98.179509 106.31321,-98.179525 50.38538,-98.179511 5.8797246,-50.869526 5.8797246,3.0804745 5.7322004,46.237231 -29.029063,80.971303 -72.140275,81.100475 c -43.111215,0.129164 -77.890915,-34.8809 -78.020005,-78.0200005 -0.12908,-43.1391045 34.90879,-77.8908285 78.020005,-78.0199995 28.269883,-0.08473 54.182645,15.132154 68.055272,39.780252 0.00498,-3.68832 0.00465,-3.542672 0.00465,0.05976 l -0.00697,-36.664539 C -22.802848,-88.884724 -47.18113,-98.254715 -72.443477,-98.179072 -128.36758,-98.011618 -173.56773,-52.843628 -173.40028,3.0804745 -173.23282,59.00458 -127.76117,104.50747 -71.837072,104.34002 -15.912968,104.17256 29.28695,58.852975 29.119725,3.0804745 29.119957,-39.857179 63.220477,-74.939525 106.31321,-74.939525 c 43.09274,0 77.19325,35.082346 77.19349,78.0199995 z"
       style="display:inline;fill:#ff9900;fill-opacity:1;stroke:#ff9900;stroke-width:3.32;stroke-linecap:butt;stroke-linejoin:miter;stroke-miterlimit:4;stroke-opacity:1" />
    <path
       sodipodi:nodetypes="ccccccccccccc"
       inkscape:connector-curvature="0"
       id="path3047"
       d="m -107.00028,-38.419526 c 31.540005,0 66.400005,0 66.400005,0 v 14.94 h -43.16 v 14.9400005 h 36.52 v 16.6 h -36.52 V 24.660475 h 43.16 v 16.6 h -66.400005 z"
       style="fill:#ff9900;fill-opacity:1;stroke:#ff9900;stroke-width:3.32px;stroke-linecap:butt;stroke-linejoin:miter;stroke-opacity:1" />
    <path
       sodipodi:nodetypes="cccccccccccccc"
       inkscape:connector-curvature="0"
       id="path3049"
       d="m 90.539725,-38.419526 h -30.71 l 0.83,79.680001 h 18.26 v -58.1 l 18.26,58.1 c 5.533325,-0.0028 11.066685,0.0028 16.599995,0 l 18.25997,-58.108251 v 58.1 h 18.26 l 0.83,-79.68 h -30.71 L 105.47971,8.0563477 Z"
       style="fill:#ff9900;fill-opacity:1;stroke:#ff9900;stroke-width:3.32px;stroke-linecap:butt;stroke-linejoin:miter;stroke-opacity:1" />
    <path
       id="path3051"
       d="m 284.75972,-40.079526 c -23.35158,0 -42.22625,18.580184 -42.22625,41.5000005 0,22.9198155 18.87467,41.5000005 42.22625,41.5000005 23.35159,0 42.33,-18.580185 42.33,-41.5000005 0,-22.9198165 -18.97841,-41.5000005 -42.33,-41.5000005 z m -0.415,20.02375 c 10.29961,0 18.65256,9.951037 18.675,22.3062505 0.0232,12.3552145 -8.27164,22.4100005 -18.57125,22.4100005 -10.2996,0 -18.7563,-10.054786 -18.77875,-22.4100005 -0.0232,-12.3552135 8.3754,-22.3062505 18.675,-22.3062505 z"
       style="fill:#ff9900;fill-opacity:1;stroke:#ff9900;stroke-width:1.66;stroke-opacity:1"
       inkscape:connector-curvature="0" />
  </g>
</svg>
